<svg xmlns="http://www.w3.org/2000/svg" xmlns:xlink="http://www.w3.org/1999/xlink" width="150" zoomAndPan="magnify" viewBox="0 0 112.5 112.499997" height="150" preserveAspectRatio="xMidYMid meet" version="1.0"><defs><clipPath id="2b08d98a63"><path d="M 51 12.285156 L 60 12.285156 L 60 21 L 51 21 Z M 51 12.285156 " clip-rule="nonzero"/></clipPath><clipPath id="fb452940b1"><path d="M 16.417969 21 L 95.566406 21 L 95.566406 99.648438 L 16.417969 99.648438 Z M 16.417969 21 " clip-rule="nonzero"/></clipPath></defs><g clip-path="url(#2b08d98a63)"><path fill="#00bf63" d="M 55.964844 20.230469 C 58.171875 20.230469 59.96875 18.449219 59.96875 16.257812 C 59.96875 14.070312 58.171875 12.289062 55.964844 12.289062 C 53.757812 12.289062 51.960938 14.070312 51.960938 16.257812 C 51.960938 18.449219 53.757812 20.230469 55.964844 20.230469 Z M 55.964844 20.230469 " fill-opacity="1" fill-rule="nonzero"/></g><g clip-path="url(#fb452940b1)"><path fill="#00bf63" d="M 95.367188 62.539062 C 95.234375 62.367188 95.03125 62.269531 94.816406 62.269531 L 92.074219 62.269531 L 87.359375 39.332031 C 89.515625 38.664062 91.703125 37.394531 93.871094 35.539062 C 94.386719 35.089844 94.683594 34.441406 94.683594 33.761719 C 94.683594 33.113281 94.410156 32.488281 93.9375 32.039062 C 93.042969 31.207031 91.667969 31.183594 90.738281 31.988281 C 88.101562 34.273438 85.636719 35.363281 83.421875 35.21875 C 80.996094 35.058594 79.015625 33.410156 76.496094 31.304688 C 73.414062 28.730469 69.578125 25.523438 63.34375 23.832031 C 63.191406 23.789062 63.035156 23.757812 62.878906 23.714844 L 63.9375 22.4375 C 64.109375 22.230469 64.144531 21.941406 64.027344 21.699219 C 63.914062 21.457031 63.667969 21.300781 63.402344 21.300781 L 48.527344 21.300781 C 48.257812 21.300781 48.015625 21.457031 47.898438 21.699219 C 47.785156 21.941406 47.820312 22.230469 47.992188 22.4375 L 49.050781 23.714844 C 48.894531 23.753906 48.738281 23.789062 48.589844 23.828125 C 42.351562 25.523438 38.515625 28.730469 35.417969 31.316406 C 32.910156 33.410156 30.933594 35.058594 28.511719 35.21875 C 26.292969 35.359375 23.828125 34.273438 21.1875 31.984375 C 20.257812 31.183594 18.882812 31.207031 17.992188 32.042969 C 17.515625 32.488281 17.246094 33.113281 17.246094 33.761719 C 17.246094 34.441406 17.542969 35.089844 18.0625 35.542969 C 20.230469 37.394531 22.414062 38.664062 24.570312 39.332031 L 19.855469 62.269531 L 17.113281 62.269531 C 16.898438 62.269531 16.695312 62.367188 16.5625 62.539062 C 16.433594 62.710938 16.386719 62.933594 16.445312 63.140625 C 17.433594 66.832031 20.253906 69.851562 23.855469 71.144531 L 23.855469 99.011719 C 23.855469 99.230469 23.960938 99.441406 24.140625 99.570312 C 24.261719 99.660156 24.40625 99.703125 24.550781 99.703125 C 24.621094 99.703125 24.695312 99.691406 24.761719 99.671875 C 34.824219 96.453125 45.730469 96.457031 55.75 99.671875 C 55.75 99.671875 55.753906 99.671875 55.753906 99.671875 C 55.816406 99.691406 55.878906 99.699219 55.945312 99.699219 C 55.953125 99.699219 55.957031 99.703125 55.964844 99.703125 C 55.976562 99.703125 55.992188 99.699219 56.003906 99.699219 C 56.050781 99.695312 56.09375 99.6875 56.140625 99.675781 C 56.152344 99.671875 56.164062 99.675781 56.175781 99.671875 C 66.195312 96.457031 77.105469 96.453125 87.167969 99.671875 C 87.378906 99.738281 87.609375 99.699219 87.789062 99.570312 C 87.96875 99.441406 88.074219 99.230469 88.074219 99.011719 L 88.074219 71.144531 C 91.679688 69.851562 94.496094 66.828125 95.488281 63.140625 C 95.542969 62.933594 95.5 62.710938 95.367188 62.539062 Z M 73.324219 62.269531 C 73.105469 62.269531 72.902344 62.367188 72.773438 62.539062 C 72.640625 62.710938 72.597656 62.933594 72.652344 63.140625 C 74.027344 68.269531 78.722656 71.847656 84.070312 71.847656 C 84.953125 71.847656 85.828125 71.75 86.6875 71.558594 L 86.6875 91.511719 C 76.914062 88.578125 66.402344 88.59375 56.660156 91.523438 L 56.660156 46.996094 C 57.59375 46.488281 58.558594 46.015625 59.542969 45.605469 C 59.546875 45.605469 59.546875 45.605469 59.546875 45.605469 C 63.425781 43.988281 67.503906 43.167969 71.671875 43.167969 C 74.414062 43.167969 77.152344 43.535156 79.828125 44.253906 L 76.066406 62.269531 Z M 25.246094 71.558594 C 26.101562 71.75 26.976562 71.847656 27.859375 71.847656 C 33.207031 71.847656 37.902344 68.269531 39.277344 63.140625 C 39.332031 62.933594 39.289062 62.710938 39.15625 62.539062 C 39.027344 62.367188 38.824219 62.269531 38.605469 62.269531 L 35.863281 62.269531 L 32.105469 44.265625 C 37.261719 42.882812 42.667969 42.828125 47.835938 44.117188 L 47.835938 71.972656 C 47.835938 72.253906 48.003906 72.507812 48.261719 72.613281 C 48.347656 72.652344 48.4375 72.667969 48.527344 72.667969 C 48.707031 72.667969 48.882812 72.597656 49.015625 72.464844 L 52.246094 69.253906 L 55.269531 72.261719 L 55.269531 91.511719 C 45.53125 88.585938 35.015625 88.578125 25.246094 91.511719 Z M 80.113281 42.894531 C 77.34375 42.160156 74.507812 41.78125 71.671875 41.78125 C 67.660156 41.78125 63.726562 42.515625 59.964844 43.953125 L 59.949219 27.851562 C 60.671875 27.988281 61.378906 28.136719 62.039062 28.320312 C 67.246094 29.742188 70.492188 32.449219 73.363281 34.84375 C 75.710938 36.804688 77.949219 38.65625 80.828125 39.46875 Z M 55.964844 45.792969 C 55.117188 45.328125 54.238281 44.902344 53.351562 44.519531 L 53.367188 28.953125 L 55.429688 31.449219 C 55.5625 31.609375 55.757812 31.699219 55.964844 31.699219 C 56.171875 31.699219 56.367188 31.609375 56.5 31.449219 L 58.5625 28.953125 L 58.578125 44.519531 C 57.6875 44.902344 56.8125 45.328125 55.964844 45.792969 Z M 51.964844 43.960938 C 50.898438 43.558594 49.8125 43.1875 48.707031 42.894531 C 43.175781 41.417969 37.359375 41.433594 31.820312 42.90625 L 31.101562 39.46875 C 33.980469 38.652344 36.21875 36.804688 38.574219 34.835938 C 41.4375 32.449219 44.683594 29.742188 49.890625 28.316406 C 50.550781 28.136719 51.257812 27.988281 51.980469 27.851562 Z M 82.183594 39.769531 C 82.484375 39.816406 82.789062 39.851562 83.105469 39.871094 C 83.339844 39.886719 83.578125 39.894531 83.820312 39.894531 C 84.546875 39.894531 85.28125 39.820312 86.015625 39.675781 L 90.65625 62.265625 L 77.488281 62.265625 Z M 62.976562 25.167969 C 68.921875 26.785156 72.628906 29.878906 75.621094 32.382812 C 78.324219 34.636719 80.457031 36.414062 83.332031 36.605469 C 85.929688 36.765625 88.722656 35.570312 91.648438 33.039062 C 92.039062 32.699219 92.617188 32.703125 92.988281 33.050781 C 93.1875 33.238281 93.296875 33.492188 93.296875 33.761719 C 93.296875 34.042969 93.175781 34.304688 92.964844 34.488281 C 90.75 36.382812 88.535156 37.625 86.382812 38.175781 C 85.308594 38.449219 84.207031 38.550781 83.195312 38.488281 C 82.703125 38.453125 82.230469 38.390625 81.789062 38.292969 C 78.910156 37.667969 76.648438 35.777344 74.246094 33.769531 C 71.273438 31.292969 67.902344 28.480469 62.40625 26.980469 C 61.808594 26.816406 61.179688 26.679688 60.539062 26.550781 L 61.902344 24.902344 C 62.261719 24.984375 62.621094 25.070312 62.976562 25.167969 Z M 18.632812 33.761719 C 18.632812 33.492188 18.742188 33.238281 18.941406 33.054688 C 19.3125 32.707031 19.890625 32.699219 20.28125 33.035156 C 23.207031 35.566406 26.003906 36.769531 28.597656 36.601562 C 31.472656 36.414062 33.605469 34.636719 36.324219 32.367188 C 39.300781 29.878906 43.007812 26.785156 48.957031 25.167969 C 49.3125 25.070312 49.671875 24.984375 50.027344 24.902344 L 51.390625 26.550781 C 50.75 26.679688 50.121094 26.816406 49.523438 26.980469 C 44.027344 28.480469 40.65625 31.292969 37.675781 33.777344 C 35.28125 35.777344 33.019531 37.667969 30.140625 38.292969 C 29.699219 38.390625 29.226562 38.453125 28.738281 38.488281 C 27.710938 38.550781 26.621094 38.449219 25.546875 38.175781 C 23.394531 37.625 21.179688 36.386719 18.972656 34.492188 C 18.753906 34.304688 18.632812 34.042969 18.632812 33.761719 Z M 25.914062 39.679688 C 26.648438 39.820312 27.382812 39.894531 28.109375 39.894531 C 28.355469 39.894531 28.589844 39.886719 28.828125 39.871094 C 29.140625 39.851562 29.445312 39.816406 29.746094 39.769531 L 34.441406 62.265625 L 21.273438 62.265625 Z M 18.0625 63.65625 L 37.660156 63.65625 C 36.175781 67.707031 32.269531 70.460938 27.859375 70.460938 C 26.835938 70.460938 25.820312 70.3125 24.84375 70.019531 C 24.8125 70.007812 24.785156 69.996094 24.753906 69.984375 C 21.664062 69.03125 19.167969 66.648438 18.0625 63.65625 Z M 25.246094 98.070312 L 25.246094 92.972656 C 35.011719 89.953125 45.539062 89.960938 55.269531 92.96875 L 55.269531 94.804688 C 50.398438 93.332031 45.355469 92.578125 40.257812 92.578125 C 38.894531 92.578125 37.484375 92.636719 36.066406 92.746094 C 35.6875 92.777344 35.402344 93.113281 35.429688 93.496094 C 35.460938 93.875 35.796875 94.160156 36.175781 94.132812 C 37.554688 94.023438 38.929688 93.96875 40.257812 93.96875 C 45.359375 93.96875 50.40625 94.742188 55.269531 96.253906 L 55.269531 98.070312 C 45.535156 95.140625 35.015625 95.136719 25.246094 98.070312 Z M 56.660156 98.078125 L 56.660156 96.253906 C 61.523438 94.742188 66.570312 93.96875 71.671875 93.96875 C 73 93.96875 74.375 94.023438 75.75 94.132812 C 76.140625 94.160156 76.46875 93.875 76.5 93.496094 C 76.527344 93.113281 76.242188 92.777344 75.863281 92.746094 C 74.445312 92.636719 73.035156 92.578125 71.671875 92.578125 C 66.574219 92.578125 61.53125 93.332031 56.660156 94.804688 L 56.660156 92.96875 C 66.390625 89.960938 76.921875 89.953125 86.683594 92.972656 L 86.683594 98.070312 C 76.910156 95.136719 66.402344 95.152344 56.660156 98.078125 Z M 87.175781 69.988281 C 87.144531 69.996094 87.117188 70.007812 87.085938 70.019531 C 86.109375 70.3125 85.09375 70.460938 84.070312 70.460938 C 79.660156 70.460938 75.753906 67.707031 74.269531 63.65625 L 93.867188 63.65625 C 92.761719 66.648438 90.265625 69.03125 87.175781 69.988281 Z M 87.175781 69.988281 " fill-opacity="1" fill-rule="nonzero"/></g></svg>